PathFileType	4	(X/Y/Z)	SUBJ94_1_walk_RCNL2025.trc
DataRate	CameraRate	NumFrames	NumMarkers	Units	OrigDataRate	OrigDataStartFrame	OrigNumFrames
100	100	7	25	mm	100	96	382
Frame#	Time	R_Shoulder			L_Shoulder			C7			J_Notch			R_Elbow			L_Elbow			R_Wrist			L_Wrist			R_Asis			L_Asis			Sacral			Thoracic			Sternum			R_Thigh_Lateral			R_Knee_Lateral			R_Shank_Lateral			R_Ankle_Lateral			R_Heel			R_Toe			L_Thigh_Lateral			L_Knee_Lateral			L_Shank_Lateral			L_Ankle_Lateral			L_Heel			L_Toe		
		X1	Y1	Z1	X2	Y2	Z2	X3	Y3	Z3	X4	Y4	Z4	X5	Y5	Z5	X6	Y6	Z6	X7	Y7	Z7	X8	Y8	Z8	X9	Y9	Z9	X10	Y10	Z10	X11	Y11	Z11	X12	Y12	Z12	X13	Y13	Z13	X14	Y14	Z14	X15	Y15	Z15	X16	Y16	Z16	X17	Y17	Z17	X18	Y18	Z18	X19	Y19	Z19	X20	Y20	Z20	X21	Y21	Z21	X22	Y22	Z22	X23	Y23	Z23	X24	Y24	Z24	X25	Y25	Z25
96	0.95000000	-1583.304321	1265.121460	340.508698	-1619.187744	1261.545532	-37.585285	-1656.357178	1343.728394	154.245605	-1542.481201	1254.426636	142.297577	-1609.702148	993.919128	449.651733	-1695.556030	983.130371	-90.058983	-1498.990662	799.402496	481.002426	-1542.456665	809.251770	-113.953663	-1541.477539	872.236938	275.702942	-1542.477051	866.109741	51.947933	-1730.620239	929.308594	151.812698	-1720.202515	1140.778198	159.838043	-1507.650146	1060.418823	153.392273	-1630.779419	527.448853	335.386139	-1646.337280	433.877441	276.568695	-1661.109009	247.273697	306.847382	-1678.553833	46.217289	220.287033	-1725.353149	45.242046	175.004349	-1546.952026	30.928720	182.654556	-1492.072632	539.405884	-35.092068	-1467.226807	451.849396	20.453035	-1546.039429	295.767609	-34.914261	-1657.190674	125.859947	68.739700	-1692.043945	131.657150	122.301414	-1554.981079	56.365910	82.823555
97	0.96000000	-1571.435425	1264.466675	340.642365	-1608.422485	1260.160767	-37.342464	-1644.813232	1342.944702	154.473389	-1531.306274	1253.372437	142.515533	-1594.531738	993.290405	450.621918	-1688.219238	982.661072	-89.408905	-1479.001526	801.298431	480.224854	-1537.641541	806.665771	-114.958164	-1531.328857	871.125366	276.781097	-1531.062866	865.103638	53.196072	-1719.859253	928.406494	151.537430	-1709.177246	1140.119751	160.381485	-1496.781860	1059.331421	153.995667	-1624.005859	526.985901	335.564117	-1641.341187	433.639923	276.661438	-1658.547119	247.220444	306.715057	-1678.339355	46.467003	219.780991	-1725.039917	45.788876	174.456970	-1546.759888	30.863352	182.571991	-1476.639160	540.164551	-33.637825	-1450.643188	452.707916	22.406645	-1519.367676	290.739685	-32.999382	-1621.934692	115.647881	70.340530	-1657.112061	119.324089	124.008698	-1515.468994	53.263775	83.948029
98	0.97000000	-1559.508789	1263.578369	340.758514	-1597.587158	1258.557739	-37.134205	-1633.198364	1342.008423	154.658630	-1520.098877	1252.087769	142.760101	-1579.368896	992.521606	451.596191	-1680.851318	982.043579	-88.781914	-1459.094788	803.149567	479.239487	-1532.884155	803.967743	-115.998123	-1521.232666	869.967285	277.846375	-1519.593140	863.893188	54.346058	-1709.117554	927.183411	151.108627	-1698.152710	1139.330566	160.826370	-1485.918213	1057.985840	154.635529	-1616.783081	526.436646	335.766602	-1635.911011	433.339966	276.769928	-1655.861328	247.113678	306.606628	-1678.112549	46.728737	219.296097	-1724.725952	46.413639	173.937485	-1546.573975	30.777107	182.448059	-1461.898071	540.425354	-32.230206	-1434.915161	453.122009	24.218727	-1493.219238	285.963196	-31.266277	-1585.941772	105.752090	71.866760	-1621.192139	107.249092	125.695061	-1475.576538	50.781143	84.882446
99	0.98000000	-1547.535522	1262.498779	340.844604	-1586.681274	1256.787476	-36.967182	-1621.515137	1340.933716	154.796844	-1508.852173	1250.585815	143.021301	-1564.204224	991.647766	452.557098	-1673.431152	981.315552	-88.170181	-1439.309570	804.964966	478.047806	-1528.165710	801.192139	-117.061604	-1511.158447	868.803711	278.874115	-1508.066528	862.544800	55.365700	-1698.378174	925.660645	150.542953	-1687.122803	1138.427856	161.164398	-1475.060181	1056.400513	155.298233	-1609.199219	525.818054	335.998840	-1630.088135	432.989014	276.894409	-1652.951904	246.964447	306.493134	-1677.869263	47.015839	218.833374	-1724.404297	47.129326	173.435974	-1546.395264	30.675741	182.295593	-1447.917358	540.145569	-30.858463	-1420.058594	453.084717	25.857424	-1467.831299	281.576416	-29.785614	-1549.303955	96.407127	73.292854	-1584.418945	95.710487	127.297234	-1435.457275	49.097366	85.694084
100	0.99000000	-1535.528442	1261.273560	340.887024	-1575.700317	1254.900391	-36.846527	-1609.770874	1339.734009	154.882904	-1497.565552	1248.880859	143.290955	-1549.040039	990.706055	453.485992	-1665.939209	980.512146	-87.568947	-1419.688416	806.755646	476.659760	-1523.458923	798.375885	-118.138279	-1501.068604	867.669983	279.846191	-1496.478394	861.119690	56.239689	-1687.622192	923.866211	149.857544	-1676.081421	1137.427734	161.390625	-1464.205933	1054.599487	155.976776	-1601.359985	525.154724	336.261292	-1623.927002	432.605743	277.030609	-1649.739014	246.790848	306.349976	-1677.605103	47.348293	218.383926	-1724.065186	47.951195	172.936768	-1546.220825	30.568327	182.130768	-1434.735840	539.305359	-29.534021	-1406.067871	452.582825	27.294254	-1443.394043	277.635254	-28.609381	-1512.156982	87.828171	74.597954	-1547.006226	84.968864	128.748550	-1395.317993	48.368938	86.452507
101	1.00000000	-1523.499756	1259.946777	340.872772	-1564.634888	1252.943848	-36.775280	-1597.974854	1338.423706	154.911636	-1486.245483	1246.989136	143.559799	-1533.888428	989.731812	454.365051	-1658.352783	979.664551	-86.976044	-1400.275574	808.532440	475.091171	-1518.725159	795.554810	-119.220367	-1490.931519	866.585754	280.751740	-1484.820312	859.668945	56.971043	-1676.828857	921.833801	149.070145	-1665.022339	1136.345825	161.504822	-1453.353027	1052.613647	156.664780	-1593.366821	524.473938	336.550537	-1617.487061	432.210938	277.171173	-1646.190186	246.616165	306.160065	-1677.315674	47.750359	217.932312	-1723.699341	48.897057	172.419891	-1546.045410	30.462152	181.967926	-1422.359009	537.913879	-28.298138	-1392.910645	451.602173	28.508949	-1420.022095	274.125366	-27.761448	-1474.708130	80.205780	75.754402	-1509.246582	75.249702	129.984421	-1355.424805	48.711517	87.235870
102	1.01000000	-1511.458374	1258.557983	340.790894	-1553.471680	1250.961182	-36.756016	-1586.135254	1337.018799	154.878952	-1474.903198	1244.929443	143.814377	-1518.769897	988.755920	455.178375	-1650.642700	978.798950	-86.390129	-1381.116089	810.304260	473.360474	-1513.914062	792.760742	-120.303127	-1480.734375	865.549133	281.587341	-1473.082764	858.231140	57.575752	-1665.975708	919.602844	148.199234	-1653.938965	1135.198975	161.511719	-1442.499634	1050.480835	157.352493	-1585.301392	523.800720	336.861176	-1610.821289	431.823303	277.307220	-1642.330811	246.468948	305.917572	-1676.998291	48.248241	217.463272	-1723.298462	49.985935	171.866638	-1545.862061	30.360460	181.816391	-1410.758423	536.006531	-27.218290	-1380.525024	450.138672	29.494951	-1397.746704	270.992157	-27.235407	-1437.254639	73.697121	76.727745	-1471.504395	66.726471	130.951874	-1316.102661	50.185352	88.118317
